<?xml version="1.0" encoding="UTF-8"?>
<svg width="16" height="16" viewBox="0 0 16 16" xmlns="http://www.w3.org/2000/svg">
    <path d="M8 1v2H4c-2.2 0-4 1.8-4 4v2c0 1 0.4 2 1 2.7c0.4 0.4 1 0.4 1.4 0.1c0.4-0.4 0.4-1 0.1-1.4C2.2 10.1 2 9.6 2 9V7c0-1.1 0.9-2 2-2h4v2h1c0.3 0 0.5-0.1 0.7-0.3l2-2c0.4-0.4 0.4-1 0-1.4l-2-2c-0.2-0.2-0.4-0.3-0.7-0.3V1zm6.3 3c-0.3 0-0.5 0.1-0.7 0.3c-0.4 0.4-0.4 1-0.1 1.4c0.3 0.4 0.5 0.8 0.5 1.3v2c0 1.1-0.9 2-2 2H8v-2H7c-0.3 0-0.5 0.1-0.7 0.3l-2 2c-0.4 0.4-0.4 1 0 1.4l2 2c0.2 0.2 0.4 0.3 0.7 0.3h1v-2h4c2.2 0 4-1.8 4-4V9c0-1-0.4-2-1-2.7c-0.2-0.2-0.4-0.3-0.7-0.3z" fill="#2e3436"/>
</svg>