<?xml version="1.0" encoding="UTF-8"?>
<svg width="16" height="16" viewBox="0 0 16 16" xmlns="http://www.w3.org/2000/svg">
    <path d="M7 1v2H4c-2.2 0-4 1.8-4 4v2c0 1 0.4 2 1 2.7c0.4 0.4 1 0.4 1.4 0.1c0.4-0.4 0.4-1 0.1-1.4C2.2 10.1 2 9.6 2 9V7c0-1.1 0.9-2 2-2h3v2h1c0.3 0 0.5-0.1 0.7-0.3l2-2c0.2-0.2 0.3-0.5 0.3-0.8c0 0 0 0 0-0.05c0-0.07-0.02-0.14-0.05-0.2c-0.01-0.04-0.02-0.07-0.04-0.1c0-0.01 0-0.01-0.01-0.02c-0.01-0.02-0.03-0.05-0.04-0.07c-0.01-0.01-0.02-0.03-0.03-0.04c-0.02-0.02-0.03-0.04-0.04-0.06c-0.01-0.01-0.02-0.02-0.02-0.02c-0.02-0.02-0.03-0.04-0.05-0.06l-2-2c-0.2-0.18-0.44-0.29-0.71-0.29V1zm7 1c-1.1 0-2 0.9-2 2s0.9 2 2 2s2-0.9 2-2s-0.9-2-2-2zm1 5c-0.55 0-1 0.45-1 1v1c0 1.1-0.9 2-2 2H8v-2H7c-0.3 0-0.5 0.1-0.7 0.3l-2 2c-0.4 0.4-0.4 1 0 1.4l2 2c0.2 0.18 0.44 0.29 0.71 0.29h1v-2h4c2.2 0 4-1.8 4-4V9c0-0.55-0.45-1-1-1z" fill="#2e3436"/>
</svg>