<?xml version="1.0" encoding="UTF-8"?>
<svg width="16" height="16" viewBox="0 0 16 16" xmlns="http://www.w3.org/2000/svg">
    <path d="M12 1v2H9c-0.9 0-1.6 0.5-2 1c-0.4 0.5-0.6 1.1-0.9 1.5l-0.1 0.2L5.9 5.5c-0.2-0.4-0.4-0.8-0.7-1.2C4.8 3.7 4 3 3 3H0v2h3c0.3 0 0.3 0 0.6 0.4c0.2 0.2 0.3 0.6 0.6 1.1L5 8l-0.8 1.5c-0.3 0.5-0.5 1-0.7 1.2C3.2 11 3.2 11 3 11H0v2h3c0.9 0 1.6-0.5 2-1c0.4-0.5 0.6-1.1 0.9-1.5l0.1-0.2L6.1 10.5c0.2 0.3 0.3 0.7 0.6 1.1c0.4 0.7 1.2 1.4 2.3 1.4h3v2h1c0.3 0 0.5-0.1 0.7-0.3l2-2c0.4-0.4 0.4-1 0-1.4l-2-2c-0.2-0.2-0.4-0.3-0.7-0.3h-1v2H9c-0.3 0-0.4-0.1-0.6-0.5c-0.1-0.2-0.3-0.6-0.5-0.9L7.1 8l0.8-1.5c0.3-0.5 0.5-1 0.7-1.2C8.8 5 8.8 5 9 5h3v2h1c0.3 0 0.5-0.1 0.7-0.3l2-2c0.4-0.4 0.4-1 0-1.4l-2-2C13.5 1.1 13.3 1 13 1h-1z" fill="#2e3436"/>
</svg>